<svg xmlns="http://www.w3.org/2000/svg" viewBox="0 0 255.1 102.26"><defs><style>.cls-1{fill:#247ba0;}.cls-2{fill:#f95c39;}.cls-3{fill:#297d9f;}</style></defs><title>logo-masters-v4</title><g id="header"><path class="cls-1" d="M229.56,62.78a12.24,12.24,0,0,0,6.17,1.44c4.22,0,7.1-1.61,7.1-5.25,0-3.39-2.51-4.45-5.63-5.1l-.82-.18c-2.19-.44-3.43-.92-3.43-2.43S234.19,49,236.69,49a9.77,9.77,0,0,1,5.52,1.54V47.21a14.24,14.24,0,0,0-5.35-1c-4.22,0-7.1,1.55-7.1,5.15,0,3.36,2.51,4.42,5.63,5.07l.82.17c2.19.45,3.43.93,3.43,2.44s-1.2,2.4-3.77,2.4a10.31,10.31,0,0,1-6.31-2ZM224,42.21h-3.16V59.35c0,3.16,1.58,4.73,4.63,4.73a6.08,6.08,0,0,0,2.06-.31V61a4.18,4.18,0,0,1-1.65.31c-1.23,0-1.88-.45-1.88-2.09Zm-15,19.4c-2.6,0-3.8-.85-3.8-2.4,0-1.71,1.44-2.5,3.49-2.84l4.08-.69V61.1a13.55,13.55,0,0,1-3.77.51m6.93-9.56c0-4.08-3.12-5.8-7.27-5.8a10.44,10.44,0,0,0-5.18,1.2v3.33A7.67,7.67,0,0,1,208.57,49c2.68,0,4.15,1.09,4.15,3.36v.82l-4.39.69c-3.73.58-6.3,1.85-6.3,5.24,0,3.64,2.91,5.11,7,5.11a17.45,17.45,0,0,0,3.7-.41h3.19Zm-27.26-9.84V57c0,5,2.37,7.23,6.86,7.23a10.69,10.69,0,0,0,4.08-.75V60.31a6.58,6.58,0,0,1-3.74,1.1c-2.61,0-4-1.2-4-4.7v-7.2h8V46.67h-8V42.21Zm-9.84,7.64V46.67h-3.15V63.81h3.15V55.89c0-5,2.13-6.28,5.86-6.28H186V46.67h-1.34c-3.49,0-5,1.37-5.69,3.18Zm-15.17-3.6c-4.83,0-8.16,3.12-8.16,9s3.33,9,8.16,9,8.16-3.12,8.16-9-3.32-9-8.16-9m0,15.23c-3.32,0-4.94-2.47-4.94-6.24S160.29,49,163.61,49s4.94,2.47,4.94,6.24-1.61,6.24-4.94,6.24m-14.38-6.24c0,3.6-1.64,6.24-5.93,6.24a9.18,9.18,0,0,1-2.6-.38V49.41a8,8,0,0,1,2.6-.41c4.29,0,5.93,2.64,5.93,6.24m-8.53,8.53a12,12,0,0,0,3.29.45c5.21,0,8.47-3.43,8.47-9s-3.26-9-8.47-9a13.53,13.53,0,0,0-3.29.42h-3.16V68.34h3.16Z"/><path class="cls-2" d="M127.56,68.34V63.81c4.12-4.22,6.07-10.05,6.31-17.14h-3.05c-.17,6-1.58,10.62-4.7,14.6H126c-3.12-4-4.53-8.64-4.7-14.6H118.1c.24,7.09,2.2,12.92,6.31,17.14v4.53Zm-24.82-13.1c0-3.6,1.65-6.24,5.93-6.24a9.2,9.2,0,0,1,2.61.37v11.7a8.25,8.25,0,0,1-2.61.41c-4.28,0-5.93-2.64-5.93-6.24m8.54-8.54a12,12,0,0,0-3.29-.45c-5.21,0-8.47,3.43-8.47,9s3.26,9,8.47,9a14.23,14.23,0,0,0,3.29-.41h3.15V42.21h-3.15Zm-15.87,0H92.25V61.1a13.41,13.41,0,0,1-3.22.38c-4.32,0-4.73-2-4.73-5.66V46.67H81.14v9.42c0,5,1.24,8.13,7.2,8.13a19.1,19.1,0,0,0,3.91-.41h3.16ZM66.54,42.21V57c0,5,2.36,7.23,6.85,7.23a10.62,10.62,0,0,0,4.08-.75V60.31a6.53,6.53,0,0,1-3.73,1.1c-2.61,0-4-1.2-4-4.7v-7.2h8V46.67h-8V42.21ZM49.43,62.78a12.24,12.24,0,0,0,6.17,1.44c4.22,0,7.1-1.61,7.1-5.25,0-3.39-2.51-4.45-5.63-5.1l-.82-.18c-2.19-.44-3.43-.92-3.43-2.43S54.06,49,56.56,49a9.77,9.77,0,0,1,5.52,1.54V47.21a14.2,14.2,0,0,0-5.35-1c-4.22,0-7.1,1.55-7.1,5.15,0,3.36,2.51,4.42,5.63,5.07l.82.17c2.19.45,3.43.93,3.43,2.44s-1.2,2.4-3.77,2.4a10.31,10.31,0,0,1-6.31-2Z"/><path class="cls-1" d="M1.63,45.09v1.53H4.36V63.81H7.57V46h0a44,44,0,0,1,9.67-1.85V63.81h4V44.1A43.15,43.15,0,0,1,31,45.93l0,0V63.81h3.21V46.63H36.9V45.09S28.2,41,19.23,41,1.63,45.09,1.63,45.09Z"/><path class="cls-2" d="M36.93,43.45S28.39,39.3,19.26,39.3,1.61,43.45,1.61,43.45V40.6l17.66-5.88,17.65,5.87Z"/><rect class="cls-1" x="1.63" y="65.5" width="35.31" height="2.91"/><path class="cls-3" d="M163.39,86.14l-3.73-10.73h-.07c.1,1.59.15,3.08.15,4.48v6.25h-1.91V73.29h3l3.57,10.22h0l3.68-10.22h3V86.14h-2V79.78c0-.64,0-1.47.05-2.49s.06-1.65.08-1.87h-.07l-3.86,10.72Z"/><path class="cls-3" d="M180.31,86.14l-.42-1.36h-.07A3.9,3.9,0,0,1,178.41,86a4.42,4.42,0,0,1-1.83.32,3.12,3.12,0,0,1-2.24-.77,2.93,2.93,0,0,1-.8-2.19,2.58,2.58,0,0,1,1.11-2.27,6.5,6.5,0,0,1,3.41-.83l1.67,0v-.52a2,2,0,0,0-.43-1.4,1.8,1.8,0,0,0-1.35-.46,4.81,4.81,0,0,0-1.43.22,11,11,0,0,0-1.32.52l-.67-1.48a7.4,7.4,0,0,1,1.73-.62,7.66,7.66,0,0,1,1.78-.22,4.21,4.21,0,0,1,2.8.81,3.16,3.16,0,0,1,.94,2.54v6.55Zm-3.08-1.41A2.57,2.57,0,0,0,179,84.1a2.28,2.28,0,0,0,.68-1.76V81.5l-1.25,0a4.2,4.2,0,0,0-2.12.49,1.47,1.47,0,0,0-.67,1.33,1.31,1.31,0,0,0,.39,1A1.69,1.69,0,0,0,177.23,84.73Z"/><path class="cls-3" d="M191.19,83.37a2.52,2.52,0,0,1-1,2.18,4.94,4.94,0,0,1-3,.76,6.88,6.88,0,0,1-3.12-.59V83.94a7.59,7.59,0,0,0,3.19.79c1.27,0,1.9-.38,1.9-1.15A.93.93,0,0,0,189,83a2.67,2.67,0,0,0-.69-.51,12.21,12.21,0,0,0-1.35-.59,6.49,6.49,0,0,1-2.27-1.3,2.45,2.45,0,0,1-.59-1.69,2.21,2.21,0,0,1,1-1.94,4.76,4.76,0,0,1,2.73-.69,7.8,7.8,0,0,1,3.25.69l-.67,1.56a7.29,7.29,0,0,0-2.65-.65c-1.09,0-1.63.31-1.63.93a1,1,0,0,0,.42.78,9.85,9.85,0,0,0,1.86.87,8.13,8.13,0,0,1,1.75.85,2.43,2.43,0,0,1,.81.89A2.54,2.54,0,0,1,191.19,83.37Z"/><path class="cls-3" d="M197.05,84.64a5.27,5.27,0,0,0,1.51-.23V86a4.31,4.31,0,0,1-.88.25,5.91,5.91,0,0,1-1.12.1q-2.94,0-2.94-3.09V78h-1.33v-.91l1.43-.76.7-2.06h1.27v2.17h2.77V78h-2.77v5.2a1.48,1.48,0,0,0,.38,1.11A1.38,1.38,0,0,0,197.05,84.64Z"/><path class="cls-3" d="M204.75,86.31A4.71,4.71,0,0,1,201.2,85a5,5,0,0,1-1.28-3.64,5.53,5.53,0,0,1,1.19-3.75,4.09,4.09,0,0,1,3.26-1.36,4,4,0,0,1,3,1.17,4.49,4.49,0,0,1,1.12,3.22v1.11h-6.48a3.2,3.2,0,0,0,.76,2.18,2.65,2.65,0,0,0,2,.76,8.13,8.13,0,0,0,1.61-.16A7.94,7.94,0,0,0,208,84v1.68a6.26,6.26,0,0,1-1.53.51A9.24,9.24,0,0,1,204.75,86.31Zm-.38-8.51a2.07,2.07,0,0,0-1.58.63,3,3,0,0,0-.71,1.82h4.42a2.8,2.8,0,0,0-.58-1.83A2,2,0,0,0,204.37,77.8Z"/><path class="cls-3" d="M215.8,76.24a4.85,4.85,0,0,1,1,.09l-.2,1.92a3.91,3.91,0,0,0-.91-.1,2.64,2.64,0,0,0-2,.81,2.89,2.89,0,0,0-.77,2.1v5.08h-2.07V76.42h1.62l.27,1.71h.11a3.82,3.82,0,0,1,1.26-1.38A3,3,0,0,1,215.8,76.24Z"/><path class="cls-3" d="M225.16,83.37a2.52,2.52,0,0,1-1,2.18,4.94,4.94,0,0,1-3,.76,6.88,6.88,0,0,1-3.12-.59V83.94a7.59,7.59,0,0,0,3.19.79c1.27,0,1.9-.38,1.9-1.15a.93.93,0,0,0-.21-.62,2.67,2.67,0,0,0-.69-.51,12.21,12.21,0,0,0-1.35-.59,6.49,6.49,0,0,1-2.27-1.3,2.45,2.45,0,0,1-.59-1.69,2.22,2.22,0,0,1,1-1.94,4.81,4.81,0,0,1,2.74-.69,7.8,7.8,0,0,1,3.25.69l-.67,1.56a7.29,7.29,0,0,0-2.65-.65c-1.09,0-1.63.31-1.63.93a1,1,0,0,0,.42.78,9.85,9.85,0,0,0,1.86.87,8.13,8.13,0,0,1,1.75.85,2.43,2.43,0,0,1,.81.89A2.54,2.54,0,0,1,225.16,83.37Z"/></g></svg>